<svg width="219" height="54" viewBox="0 0 219 54" fill="none" xmlns="http://www.w3.org/2000/svg">
<path d="M47.344 27.68V46.496C47.344 48.5493 46.9893 50.0613 46.28 51.032C45.608 52.0027 44.3947 52.6373 42.64 52.936C41.3707 53.16 40.0453 53.2907 38.664 53.328C37.32 53.3653 36.0133 53.3653 34.744 53.328L33.68 47.784H13.296V35.128H36.872V47.784H35.92C36.4427 47.8213 36.984 47.8213 37.544 47.784C38.104 47.784 38.6453 47.7653 39.168 47.728C39.952 47.6533 40.456 47.4853 40.68 47.224C40.9413 46.9627 41.072 46.44 41.072 45.656V32.44H9.04V53.552H2.936V27.68H47.344ZM42.752 13.12V24.936H7.528V13.12H42.752ZM27.24 0.967999C27.4267 1.37866 27.5947 1.88266 27.744 2.48C27.9307 3.04 28.136 3.69333 28.36 4.44C28.4347 4.70133 28.4907 4.944 28.528 5.168C28.6027 5.392 28.6773 5.59733 28.752 5.784H49.864V10.6H0.36V5.784H22.088L21.92 5.168C21.7333 4.45866 21.5653 3.86133 21.416 3.376C21.2667 2.89066 21.1173 2.44266 20.968 2.032L27.24 0.967999ZM13.688 20.512H36.424V17.6H13.688V20.512ZM19.344 42.968H30.824V39.888H19.344V42.968ZM101.832 46.16C101.832 47.392 101.757 48.4187 101.608 49.24C101.496 50.0987 101.253 50.7893 100.88 51.312C100.507 51.8347 99.9653 52.2453 99.256 52.544C98.584 52.8427 97.688 53.048 96.568 53.16C95.2987 53.3093 94.1787 53.4027 93.208 53.44C92.2373 53.4773 91.2293 53.4773 90.184 53.44L89.176 48.344C90.2213 48.4187 91.08 48.456 91.752 48.456C92.424 48.4933 93.04 48.512 93.6 48.512C94.16 48.512 94.608 48.4747 94.944 48.4C95.28 48.3627 95.5227 48.2507 95.672 48.064C95.8587 47.9147 95.9707 47.672 96.008 47.336C96.0453 47.0373 96.064 46.6267 96.064 46.104V45.208H77.976V53.44H72.152V26.616H101.832V46.16ZM89.848 1.696V6.008H104.016V10.432H89.848V12.84H102.728V17.152H89.848V19.56H105.864V23.872H69.016V19.56H84.08V17.152H72.376V12.84H84.08V10.432H70.864V10.264L66.776 14.968C66.1413 14.296 65.4507 13.6427 64.704 13.008C63.9947 12.336 63.136 11.5707 62.128 10.712C61.12 9.85333 60.1867 9.12533 59.328 8.528C58.5067 7.89333 57.7787 7.37066 57.144 6.96L60.896 2.312C62.576 3.46933 64.2933 4.73867 66.048 6.12C67.84 7.464 69.4453 8.808 70.864 10.152V6.008H84.08V1.696H89.848ZM56.808 51.256C57.3307 50.0613 57.8907 48.6613 58.488 47.056C59.0853 45.4507 59.72 43.584 60.392 41.456C61.064 39.328 61.5867 37.4613 61.96 35.856C62.3707 34.2133 62.7067 32.72 62.968 31.376L68.904 32.888C68.68 34.1947 68.344 35.7253 67.896 37.48C67.448 39.2347 66.9067 41.176 66.272 43.304C65.6373 45.3947 65.0213 47.2613 64.424 48.904C63.8267 50.584 63.2667 52.0213 62.744 53.216L56.808 51.256ZM58.152 14.968C60.056 16.2 61.8853 17.5067 63.64 18.888C65.432 20.232 67.1493 21.6133 68.792 23.032L64.648 28.24C64.088 27.6427 63.3973 26.9707 62.576 26.224C61.7547 25.4773 60.8027 24.6747 59.72 23.816C57.592 22.024 55.856 20.68 54.512 19.784L58.152 14.968ZM77.976 40.504H96.064V38.04H77.976V40.504ZM77.976 33.56H96.064V31.152H77.976V33.56ZM148.536 1.696V6.008H160.464V10.488H148.536V12.896H159.176V17.208H148.536V19.56H161.976V23.872H131.176V19.56H142.88V17.208H133.416V12.896H142.88V10.488H132.576V8.472C132.389 9.10667 132.165 9.77867 131.904 10.488C131.68 11.16 131.437 11.9067 131.176 12.728C130.765 13.96 130.355 15.0613 129.944 16.032C129.533 16.9653 129.141 17.768 128.768 18.44L124.792 16.816V19.896H130.448V25.552H124.792V26.84C125.651 27.8107 126.453 28.7813 127.2 29.752C127.947 30.7227 128.693 31.6933 129.44 32.664C130.187 33.7093 130.803 34.5867 131.288 35.296C131.773 36.0053 132.277 36.7893 132.8 37.648L128.432 41.4C128.096 40.7653 127.667 40.0747 127.144 39.328C126.659 38.544 126.099 37.6667 125.464 36.696L124.792 35.688V53.776H119.192V37.144C118.483 38.6373 117.699 40.0933 116.84 41.512C115.981 42.8933 115.029 44.2747 113.984 45.656L109.784 41.232C113.48 36.7893 116.355 31.5627 118.408 25.552H111.912V19.896H119.192V16.816L114.6 18.328C114.451 17.6187 114.245 16.7973 113.984 15.864C113.723 14.9307 113.405 13.8853 113.032 12.728C112.323 10.488 111.651 8.67733 111.016 7.296L115.552 5.728C115.851 6.36266 116.168 7.14666 116.504 8.08C116.84 8.976 117.213 10.0213 117.624 11.216C117.997 12.2987 118.296 13.2693 118.52 14.128C118.781 14.9867 119.005 15.752 119.192 16.424V1.864H124.792V15.752C125.091 15.1547 125.371 14.5013 125.632 13.792C125.931 13.0827 126.229 12.2613 126.528 11.328C126.939 10.1707 127.293 9.088 127.592 8.08C127.891 7.03466 128.133 6.13866 128.32 5.392L132.576 6.512V6.008H142.88V1.696H148.536ZM158.616 46.104C158.616 47.336 158.541 48.3627 158.392 49.184C158.28 50.0427 158.037 50.7333 157.664 51.256C157.328 51.816 156.824 52.2453 156.152 52.544C155.48 52.8427 154.584 53.048 153.464 53.16C152.232 53.3093 151.168 53.384 150.272 53.384C149.413 53.4213 148.499 53.4213 147.528 53.384L146.576 48.12C147.509 48.1947 148.275 48.232 148.872 48.232C149.469 48.2693 150.029 48.288 150.552 48.288C151.112 48.288 151.541 48.2507 151.84 48.176C152.176 48.1387 152.419 48.0267 152.568 47.84C152.755 47.6907 152.867 47.448 152.904 47.112C152.979 46.8133 153.016 46.4027 153.016 45.88V45.152H138.568V53.384H132.912V26.504H158.616V46.104ZM138.568 33.448H153.016V30.984H138.568V33.448ZM138.568 40.448H153.016V38.04H138.568V40.448ZM203.92 1.416C204.443 2.46133 205.077 3.992 205.824 6.008C206.048 6.64266 206.253 7.25866 206.44 7.856C206.664 8.416 206.851 8.93867 207 9.424H217.192V15.024H205.6V20.736H216.016V26.056H205.6V31.936H216.016V37.648H205.6V44.2H218.032V49.968H190.48V53.328H184.208V24.432C183.76 25.104 183.293 25.776 182.808 26.448C182.36 27.0827 181.875 27.736 181.352 28.408L176.312 23.816C177.917 21.8 179.429 19.672 180.848 17.432L175.64 20.232C175.304 19.2613 174.856 18.1787 174.296 16.984C173.773 15.752 173.139 14.3893 172.392 12.896C171.645 11.3653 170.936 10.0213 170.264 8.864C169.629 7.70667 169.032 6.69867 168.472 5.84L173.848 2.984C174.931 4.58933 176.293 6.904 177.936 9.928C178.683 11.3467 179.336 12.6347 179.896 13.792C180.456 14.912 180.904 15.92 181.24 16.816C182.771 14.24 184.096 11.6267 185.216 8.976C186.373 6.288 187.344 3.544 188.128 0.743998L194.232 2.032C193.933 3.264 193.597 4.496 193.224 5.728C192.888 6.96 192.477 8.192 191.992 9.424H200.896C200.709 8.752 200.485 8.024 200.224 7.24C199.888 6.232 199.571 5.37333 199.272 4.664C199.011 3.91733 198.749 3.28267 198.488 2.76L203.92 1.416ZM167.968 49.464C168.528 48.232 169.125 46.7573 169.76 45.04C170.395 43.2853 171.067 41.2507 171.776 38.936C172.485 36.584 173.064 34.5493 173.512 32.832C173.96 31.0773 174.333 29.4907 174.632 28.072L180.96 29.696C180.699 31.1147 180.325 32.776 179.84 34.68C179.392 36.5467 178.813 38.6373 178.104 40.952C177.395 43.2293 176.723 45.2453 176.088 47C175.453 48.7547 174.856 50.2667 174.296 51.536L167.968 49.464ZM190.48 44.2H199.496V37.648H190.48V44.2ZM190.48 31.936H199.496V26.056H190.48V31.936ZM190.48 20.736H199.496V15.024H190.48V20.736Z" fill="url(#paint0_linear)"/>
<defs>
<linearGradient id="paint0_linear" x1="-75.354" y1="14.8603" x2="-45.4725" y2="130.823" gradientUnits="userSpaceOnUse">
<stop stop-color="#AC5DD9"/>
<stop offset="1" stop-color="#004FC4"/>
</linearGradient>
</defs>
</svg>
