<svg width="332" height="60" viewBox="0 0 332 60" fill="none" xmlns="http://www.w3.org/2000/svg">
<path d="M42.464 22.76V10.44H21.296V4.056H48.96V50.088H19V43.648H42.464V29.312H22.36V22.76H42.464ZM0.24 27.856C1.28533 27.5573 2.46133 27.2027 3.768 26.792C5.112 26.3813 6.624 25.8773 8.304 25.28V15.816H1.416V9.656H8.304V0.247998H14.464V9.656H20.792V15.816H14.464V22.984C15.472 22.5733 16.3867 22.2 17.208 21.864C18.0667 21.528 18.888 21.192 19.672 20.856L21.072 26.96C19.28 27.8187 17.0773 28.752 14.464 29.76V45.832C14.464 46.952 14.3707 47.8667 14.184 48.576C13.9973 49.3227 13.7173 49.92 13.344 50.368C12.9707 50.8533 12.4853 51.208 11.888 51.432C11.328 51.6933 10.656 51.8987 9.872 52.048C9.05067 52.1973 8.00533 52.2907 6.736 52.328C5.504 52.3653 4.36533 52.3653 3.32 52.328L2.032 45.832C2.704 45.9067 3.45067 45.9627 4.272 46C5.09333 46 5.76533 46 6.288 46C7.22133 46 7.78133 45.888 7.968 45.664C8.192 45.44 8.304 44.7867 8.304 43.704V32.112C7.03467 32.56 5.896 32.952 4.888 33.288C3.91733 33.624 2.984 33.9227 2.088 34.184L0.24 27.856ZM107.368 20.632V27.8H56.632V20.632H107.368ZM161.24 2.04V51.768H114.872V2.04H161.24ZM142.816 12.848C143.189 12.5493 143.581 12.1947 143.992 11.784C144.44 11.3733 144.925 10.888 145.448 10.328L148.08 7.416L151.552 10.44C150.917 11.2987 150.021 12.3067 148.864 13.464C148.528 13.8747 148.192 14.2107 147.856 14.472H153.064V18.672H138.336C138.037 19.4933 137.701 20.2587 137.328 20.968H153.96V25.056H147.352C148.323 26.1387 149.424 27.0907 150.656 27.912C151.925 28.7333 153.437 29.4987 155.192 30.208V6.912H120.864V30.712C122.32 29.816 123.664 28.92 124.896 28.024C126.128 27.0907 127.248 26.1013 128.256 25.056H122.208V20.968H131.504C131.728 20.5947 131.952 20.2213 132.176 19.848C132.4 19.4747 132.605 19.0827 132.792 18.672H122.992V14.472H128.424L127.136 13.128C126.016 11.9707 125.12 11.0747 124.448 10.44L127.808 7.304C128.181 7.60266 128.592 7.976 129.04 8.424C129.525 8.83467 130.048 9.32 130.608 9.88C131.205 10.44 131.709 10.944 132.12 11.392C132.531 11.84 132.885 12.232 133.184 12.568L131.224 14.472H134.304C134.416 14.136 134.509 13.7813 134.584 13.408C134.696 13.0347 134.808 12.6427 134.92 12.232C135.181 11.224 135.387 10.328 135.536 9.544C135.723 8.72266 135.891 7.90133 136.04 7.08L141.08 7.752C140.968 8.424 140.875 9.04 140.8 9.6C140.725 10.1227 140.632 10.6453 140.52 11.168C140.408 11.6533 140.277 12.1573 140.128 12.68C140.016 13.2027 139.867 13.8 139.68 14.472H144.384L142.816 12.848ZM155.192 46.672V32.784L153.96 35.304C152.653 34.7067 151.403 34.0533 150.208 33.344C149.013 32.5973 147.893 31.8133 146.848 30.992L146.68 33.344C146.568 34.0907 146.419 34.7253 146.232 35.248C146.083 35.7333 145.84 36.144 145.504 36.48C145.168 36.7787 144.739 37.0213 144.216 37.208C143.693 37.3573 143.021 37.4693 142.2 37.544C141.379 37.6187 140.408 37.6747 139.288 37.712C138.168 37.7493 137.272 37.768 136.6 37.768L135.816 33.736C136.563 33.7733 137.291 33.8107 138 33.848C138.747 33.848 139.493 33.848 140.24 33.848C140.837 33.848 141.211 33.792 141.36 33.68C141.509 33.5307 141.621 33.288 141.696 32.952C141.733 32.7653 141.752 32.56 141.752 32.336C141.789 32.0747 141.808 31.8693 141.808 31.72H132.4V37.544C132.4 38.552 132.549 39.2053 132.848 39.504C133.147 39.8027 133.893 39.9707 135.088 40.008C135.723 40.008 136.32 40.0267 136.88 40.064C137.44 40.064 138.019 40.064 138.616 40.064C139.251 40.064 139.923 40.064 140.632 40.064C141.379 40.064 142.256 40.0453 143.264 40.008C143.936 39.9707 144.459 39.9333 144.832 39.896C145.243 39.8587 145.541 39.784 145.728 39.672C145.952 39.5227 146.101 39.3547 146.176 39.168C146.288 38.944 146.381 38.6453 146.456 38.272C146.531 37.8613 146.624 37.3947 146.736 36.872C146.848 36.312 146.923 35.7893 146.96 35.304L152.112 36.48C152.037 37.1147 151.944 37.7307 151.832 38.328C151.757 38.888 151.664 39.4293 151.552 39.952C151.365 40.6987 151.123 41.3333 150.824 41.856C150.563 42.3413 150.171 42.752 149.648 43.088C149.125 43.424 148.453 43.6853 147.632 43.872C146.848 44.0213 145.859 44.1333 144.664 44.208C143.32 44.2827 141.603 44.3387 139.512 44.376C137.421 44.376 135.163 44.32 132.736 44.208C131.691 44.1707 130.795 44.0587 130.048 43.872C129.339 43.648 128.741 43.3307 128.256 42.92C127.808 42.5093 127.472 41.9867 127.248 41.352C127.061 40.68 126.968 39.8587 126.968 38.888V33.344C125.736 34.24 124.411 35.1173 122.992 35.976L120.864 32.784V46.672H155.192ZM143.152 27.52C142.779 27.1093 142.424 26.6987 142.088 26.288C141.752 25.8773 141.435 25.4667 141.136 25.056H134.976V25.112C134.715 25.5227 134.435 25.9333 134.136 26.344C133.837 26.7173 133.539 27.1093 133.24 27.52H143.152ZM184.088 42.92C184.088 45.6827 183.528 50.088 182.408 56.136L181.736 59.888H174.848L175.52 56.136C175.781 54.568 176.005 52.5147 176.192 49.976C176.379 47.4373 176.472 45.0853 176.472 42.92H184.088ZM230.568 46C231.277 46.0373 231.912 46.056 232.472 46.056C233.032 46.0933 233.573 46.112 234.096 46.112C234.992 46.112 235.571 45.9813 235.832 45.72C236.093 45.4587 236.224 44.768 236.224 43.648V30.712H227.936V14.864H249.384V30.712H241.992V44.04C241.992 45.496 241.917 46.6907 241.768 47.624C241.619 48.5573 241.339 49.304 240.928 49.864C240.555 50.424 240.013 50.8347 239.304 51.096C238.632 51.3947 237.736 51.6 236.616 51.712C235.608 51.824 234.731 51.88 233.984 51.88C233.275 51.9173 232.509 51.936 231.688 51.936L230.568 46ZM246.696 31.944C247.107 32.4667 247.499 33.0453 247.872 33.68C248.283 34.2773 248.731 34.968 249.216 35.752C249.589 36.3493 249.907 36.872 250.168 37.32C250.429 37.768 250.672 38.216 250.896 38.664C251.307 37.88 251.643 37.1147 251.904 36.368C252.203 35.584 252.464 34.8187 252.688 34.072C253.808 30.376 254.536 25.1867 254.872 18.504H250.56V12.848H255.096C255.133 10.608 255.152 8.40533 255.152 6.24C255.189 4.03733 255.208 2.07733 255.208 0.359997H260.92C260.771 3.832 260.715 7.99466 260.752 12.848H274.92V18.504H260.64C260.491 22.312 260.211 25.6907 259.8 28.64C259.389 31.5893 258.867 34.1467 258.232 36.312C256.589 41.6133 253.584 47.1387 249.216 52.888L244.12 49.024C246.621 45.9627 248.637 42.9947 250.168 40.12L246.64 42.248C246.416 41.7253 246.155 41.1653 245.856 40.568C245.557 39.9333 245.165 39.1867 244.68 38.328C244.232 37.4693 243.803 36.7413 243.392 36.144C243.019 35.5093 242.683 34.968 242.384 34.52L246.696 31.944ZM266.912 19.792V44.152C266.912 45.0107 266.987 45.552 267.136 45.776C267.323 46 267.808 46.112 268.592 46.112C269.339 46.112 269.805 46.0187 269.992 45.832C270.216 45.6453 270.365 45.104 270.44 44.208C270.552 42.9387 270.645 41.688 270.72 40.456C270.795 39.1867 270.832 37.9547 270.832 36.76L275.816 38.216C275.779 39 275.723 40.064 275.648 41.408C275.573 42.752 275.461 44.0213 275.312 45.216C275.163 46.5227 274.957 47.5867 274.696 48.408C274.472 49.2667 274.136 49.92 273.688 50.368C273.24 50.8533 272.68 51.1893 272.008 51.376C271.336 51.6 270.496 51.712 269.488 51.712C268.965 51.712 268.443 51.712 267.92 51.712C267.435 51.7493 266.987 51.7493 266.576 51.712C265.381 51.6747 264.429 51.5067 263.72 51.208C263.048 50.9467 262.507 50.5547 262.096 50.032C261.723 49.5093 261.48 48.8373 261.368 48.016C261.256 47.232 261.2 46.28 261.2 45.16V19.792H266.912ZM240.704 0.527998C240.853 0.938664 241.003 1.424 241.152 1.984C241.301 2.544 241.469 3.19733 241.656 3.944L242.048 5.904H251.344V11.392H225.808V5.904H236.056L235.776 4.504C235.477 3.048 235.197 1.872 234.936 0.975999L240.704 0.527998ZM223.232 46.336C223.717 45.5893 224.259 44.656 224.856 43.536C225.453 42.3787 226.069 41.0533 226.704 39.56C227.339 38.0667 227.899 36.704 228.384 35.472C228.869 34.2027 229.261 33.1013 229.56 32.168L234.936 33.736C234.637 34.7813 234.227 35.976 233.704 37.32C233.181 38.6267 232.565 40.0827 231.856 41.688C231.147 43.2933 230.493 44.712 229.896 45.944C229.299 47.1387 228.739 48.1653 228.216 49.024L223.232 46.336ZM266.24 0.919996C266.763 1.368 267.36 1.928 268.032 2.6C268.704 3.23467 269.432 3.96266 270.216 4.784C271.821 6.464 273.016 7.82666 273.8 8.872L269.488 12.4C268.704 11.28 267.584 9.936 266.128 8.368C264.597 6.688 263.365 5.4 262.432 4.504L266.24 0.919996ZM233.48 25.56H243.672V19.904H233.48V25.56ZM279.512 48.072C281.677 46.392 283.6 44.7493 285.28 43.144C286.96 41.5013 288.416 39.8773 289.648 38.272C288.192 36.9653 286.848 35.8453 285.616 34.912C284.384 33.9413 283.264 33.1013 282.256 32.392C282.891 29.816 283.488 27.184 284.048 24.496C284.645 21.808 285.187 18.952 285.672 15.928H281.36V9.6H286.568C286.941 6.65066 287.277 3.51467 287.576 0.191999L293.68 0.639997C293.568 1.94666 293.419 3.34667 293.232 4.84C293.045 6.296 292.821 7.88266 292.56 9.6H302.92V15.648C302.323 20.352 301.613 24.4587 300.792 27.968C299.971 31.44 299.056 34.3707 298.048 36.76C299.541 38.0293 300.885 39.224 302.08 40.344C303.312 41.464 304.339 42.4533 305.16 43.312L300.568 48.408C299.821 47.5493 298.944 46.6533 297.936 45.72C296.928 44.7493 295.808 43.704 294.576 42.584C293.344 44.2267 291.869 45.888 290.152 47.568C288.435 49.2853 286.456 51.0587 284.216 52.888L279.512 48.072ZM306.112 45.664C307.045 45.7387 307.848 45.7947 308.52 45.832C309.229 45.8693 310.051 45.8693 310.984 45.832C311.619 45.832 312.123 45.7947 312.496 45.72C312.869 45.6453 313.131 45.5147 313.28 45.328C313.467 45.104 313.579 44.8053 313.616 44.432C313.653 44.0213 313.672 43.48 313.672 42.808V29.368H302.696V22.816H313.672V16.824C315.24 15.7413 316.771 14.584 318.264 13.352C319.757 12.0827 321.232 10.7573 322.688 9.376H304.712V3.216H330.752V9.264C327.28 13.072 323.659 16.3387 319.888 19.064V22.816H331.928V29.368H319.888V44.88C319.888 47.1947 319.459 48.8747 318.6 49.92C317.741 50.9653 316.229 51.6747 314.064 52.048C313.616 52.1227 313.093 52.1787 312.496 52.216C311.936 52.2533 311.357 52.272 310.76 52.272C310.163 52.3093 309.565 52.328 308.968 52.328C308.371 52.328 307.829 52.328 307.344 52.328L306.112 45.664ZM288.808 29.648C290.04 30.432 291.44 31.44 293.008 32.672C293.867 30.6187 294.632 28.2107 295.304 25.448C295.976 22.6853 296.536 19.512 296.984 15.928H291.608C291.197 18.4293 290.749 20.8187 290.264 23.096C289.816 25.3733 289.331 27.5573 288.808 29.648Z" fill="url(#paint0_linear)"/>
<defs>
<linearGradient id="paint0_linear" x1="-110.531" y1="13.8603" x2="-89.8962" y2="133.978" gradientUnits="userSpaceOnUse">
<stop stop-color="#AC5DD9"/>
<stop offset="1" stop-color="#004FC4"/>
</linearGradient>
</defs>
</svg>
